<?xml version="1.0" encoding="UTF-8"?>
<svg width="800" height="600" viewBox="0 0 800 600" xmlns="http://www.w3.org/2000/svg">
  <!-- Background -->
  <rect width="800" height="600" fill="#f8f9fa"/>
  
  <!-- Grid lines -->
  <defs>
    <pattern id="grid" width="40" height="40" patternUnits="userSpaceOnUse">
      <path d="M 40 0 L 0 0 0 40" fill="none" stroke="#e9ecef" stroke-width="1"/>
    </pattern>
  </defs>
  <rect width="800" height="600" fill="url(#grid)" opacity="0.5"/>
  
  <!-- Ground line -->
  <line x1="50" y1="450" x2="750" y2="450" stroke="#333" stroke-width="2"/>
  
  <!-- Viewer area (8 ft standoff, 6 ft minimum) -->
  <rect x="50" y="450" width="120" height="20" fill="rgba(255,215,0,0.3)" stroke="#DAA520" stroke-width="2"/>
  <text x="110" y="445" text-anchor="middle" fill="#B8860B" font-size="10" font-weight="bold">Viewer Zone</text>
  <text x="110" y="430" text-anchor="middle" fill="#B8860B" font-size="9">8 ft standoff (6 ft min)</text>
  
  <!-- Person silhouette at 5'6" (1.68m) -->
  <g transform="translate(110,450)">
    <!-- Head -->
    <circle cx="0" cy="-66" r="8" fill="#333"/>
    <!-- Body -->
    <rect x="-6" y="-58" width="12" height="30" fill="#333"/>
    <!-- Arms -->
    <rect x="-12" y="-50" width="6" height="20" fill="#333"/>
    <rect x="6" y="-50" width="6" height="20" fill="#333"/>
    <!-- Legs -->
    <rect x="-6" y="-28" width="5" height="28" fill="#333"/>
    <rect x="1" y="-28" width="5" height="28" fill="#333"/>
  </g>
  <text x="110" y="480" text-anchor="middle" fill="#333" font-size="9">5'6" eye height</text>
  
  <!-- Platform/build-up (24 in) on viewer side -->
  <rect x="50" y="450" width="120" height="24" fill="#D2B48C" stroke="#8B7355" stroke-width="1"/>
  <text x="110" y="495" text-anchor="middle" fill="#5D4E37" font-size="9">24" platform build-up</text>
  
  <!-- Mask wall (2.25 ft high) - hides pit from viewer -->
  <rect x="170" y="360" width="20" height="90" fill="#1a1a1a" stroke="#000" stroke-width="2"/>
  <text x="200" y="400" fill="#000" font-size="10" font-weight="bold">Mask Wall</text>
  <text x="200" y="415" fill="#000" font-size="9">2.25 ft high</text>
  <text x="200" y="425" fill="#000" font-size="9">matte black</text>
  
  <!-- Pit/recess with ground screen (on viewer side of foil) -->
  <rect x="190" y="430" width="120" height="20" fill="#4169E1" stroke="#000" stroke-width="1"/>
  <rect x="190" y="450" width="120" height="40" fill="#e0e0e0" stroke="#000" stroke-width="1" stroke-dasharray="2,2"/>
  <text x="250" y="425" text-anchor="middle" fill="#000" font-size="10" font-weight="bold">Ground Screen</text>
  <text x="250" y="470" text-anchor="middle" fill="#666" font-size="9">Pit/Recess</text>
  
  <!-- Projector (10-12K lumen) in pit -->
  <rect x="240" y="460" width="40" height="20" fill="#666" stroke="#000"/>
  <text x="260" y="475" text-anchor="middle" fill="white" font-size="8">10-12K lm</text>
  <text x="260" y="485" text-anchor="middle" fill="white" font-size="8">Projector</text>
  
  <!-- Foil plane at 45 degrees (14 ft × 9 ft) -->
  <line x1="310" y1="450" x2="470" y2="290" stroke="#00FF7F" stroke-width="4"/>
  <text x="380" y="360" text-anchor="middle" fill="#00AA55" font-size="12" font-weight="bold" 
        transform="rotate(-45 380 360)">Foil Plane</text>
  <text x="360" y="380" text-anchor="middle" fill="#00AA55" font-size="10" 
        transform="rotate(-45 360 380)">14 ft × 9 ft @ 45°</text>
  
  <!-- Virtual image area (8 ft × 8 ft) - appears BEHIND foil -->
  <rect x="500" y="310" width="64" height="64" fill="rgba(0,191,255,0.3)" stroke="#00BFFF" stroke-width="2" stroke-dasharray="5,5"/>
  <text x="532" y="305" text-anchor="middle" fill="#0080C0" font-size="10" font-weight="bold">8 ft × 8 ft</text>
  <text x="532" y="295" text-anchor="middle" fill="#0080C0" font-size="10">Virtual Image</text>
  <text x="532" y="385" text-anchor="middle" fill="#0080C0" font-size="9">(appears behind foil)</text>
  
  <!-- Throw path: projector → ground screen → foil → virtual image -->
  <path d="M 280 470 L 250 440 L 380 340 L 520 350" stroke="red" stroke-width="2" fill="none" stroke-dasharray="3,3"/>
  <text x="350" y="400" fill="red" font-size="9">Reflection Path</text>
  <text x="350" y="410" fill="red" font-size="8">projector → ground → foil → virtual image</text>
  
  <!-- Viewer sightline to virtual image -->
  <path d="M 110 384 L 520 340" stroke="blue" stroke-width="2" fill="none" stroke-dasharray="5,2"/>
  <text x="300" y="350" fill="blue" font-size="9">Viewer Sightline</text>
  
  <!-- Blackout zone (≤50 lux) -->
  <rect x="170" y="250" width="400" height="200" fill="none" stroke="#8B0000" stroke-width="3" stroke-dasharray="10,5" opacity="0.7"/>
  <text x="370" y="240" text-anchor="middle" fill="#8B0000" font-size="11" font-weight="bold">Blackout Zone</text>
  <text x="370" y="255" text-anchor="middle" fill="#8B0000" font-size="9">≤50 lux at foil plane</text>
  
  <!-- Dimensions -->
  <g stroke="#666" stroke-width="1" fill="#666" font-size="8">
    <!-- 8 ft standoff -->
    <line x1="170" y1="500" x2="310" y2="500"/>
    <line x1="170" y1="495" x2="170" y2="505"/>
    <line x1="310" y1="495" x2="310" y2="505"/>
    <text x="240" y="515" text-anchor="middle">8 ft standoff</text>
    
    <!-- 24 in platform/pit depth -->
    <line x1="190" y1="520" x2="310" y2="520"/>
    <line x1="190" y1="515" x2="190" y2="525"/>
    <line x1="310" y1="515" x2="310" y2="525"/>
    <text x="250" y="535" text-anchor="middle">24" pit depth</text>
    
    <!-- 11 ft ceiling clearance -->
    <line x1="750" y1="200" x2="750" y2="290"/>
    <line x1="745" y1="200" x2="755" y2="200"/>
    <line x1="745" y1="290" x2="755" y2="290"/>
    <text x="760" y="245" fill="#666" font-size="8">11 ft</text>
    <text x="760" y="255" fill="#666" font-size="8">ceiling</text>
  </g>
  
  <!-- Title -->
  <text x="400" y="30" text-anchor="middle" font-size="18" font-weight="bold" fill="#333">Pepper's Ghost Installation - Corrected Geometry</text>
  <text x="400" y="50" text-anchor="middle" font-size="12" fill="#666">Viewer and Ground Screen on SAME side of foil, Virtual Image appears BEHIND foil</text>
  
  <!-- Legend -->
  <g transform="translate(50,50)">
    <rect x="0" y="0" width="240" height="150" fill="white" stroke="#ccc" stroke-width="1"/>
    <text x="10" y="15" font-size="12" font-weight="bold" fill="#333">Corrected Components:</text>
    <line x1="10" y1="25" x2="30" y2="25" stroke="#00FF7F" stroke-width="3"/>
    <text x="35" y="29" font-size="10" fill="#333">Foil Plane (45°)</text>
    <rect x="10" y="35" width="20" height="10" fill="#1a1a1a"/>
    <text x="35" y="44" font-size="10" fill="#333">Mask Wall (hides pit)</text>
    <rect x="10" y="50" width="20" height="5" fill="#4169E1"/>
    <text x="35" y="59" font-size="10" fill="#333">Ground Screen (in pit)</text>
    <rect x="10" y="65" width="20" height="10" fill="#D2B48C"/>
    <text x="35" y="74" font-size="10" fill="#333">Platform (24")</text>
    <rect x="10" y="80" width="20" height="10" fill="rgba(0,191,255,0.3)" stroke="#00BFFF" stroke-dasharray="2,2"/>
    <text x="35" y="89" font-size="10" fill="#333">Virtual Image (behind foil)</text>
    <line x1="10" y1="100" x2="30" y2="100" stroke="red" stroke-dasharray="3,3"/>
    <text x="35" y="104" font-size="10" fill="#333">Reflection Path</text>
    <rect x="10" y="110" width="20" height="10" fill="#666"/>
    <text x="35" y="119" font-size="10" fill="#333">Projector (10-12K lm)</text>
    <text x="10" y="135" font-size="9" fill="#666">Key: Viewer and projector on SAME side of foil</text>
    <text x="10" y="145" font-size="9" fill="#666">Virtual image appears equal distance on OPPOSITE side</text>
  </g>
</svg>