<?xml version="1.0" encoding="UTF-8"?>
<svg width="800" height="600" viewBox="0 0 800 600" xmlns="http://www.w3.org/2000/svg">
  <!-- Background -->
  <rect width="800" height="600" fill="#f8f9fa"/>
  
  <!-- Grid lines -->
  <defs>
    <pattern id="grid" width="40" height="40" patternUnits="userSpaceOnUse">
      <path d="M 40 0 L 0 0 0 40" fill="none" stroke="#e9ecef" stroke-width="1"/>
    </pattern>
  </defs>
  <rect width="800" height="600" fill="url(#grid)" opacity="0.5"/>
  
  <!-- Ground line -->
  <line x1="50" y1="450" x2="750" y2="450" stroke="#333" stroke-width="2"/>
  
  <!-- Projection bay (black box) -->
  <rect x="50" y="300" width="240" height="150" fill="#333" stroke="#000" stroke-width="2"/>
  <text x="170" y="380" text-anchor="middle" fill="white" font-size="12" font-weight="bold">Projection Bay</text>
  <text x="170" y="395" text-anchor="middle" fill="white" font-size="10">6 ft deep</text>
  
  <!-- Projector -->
  <rect x="200" y="420" width="40" height="20" fill="#666" stroke="#000"/>
  <text x="220" y="435" text-anchor="middle" fill="white" font-size="8">Projector</text>
  
  <!-- Ground screen -->
  <rect x="290" y="430" width="120" height="20" fill="#4169E1" stroke="#000" stroke-width="1"/>
  <text x="350" y="425" text-anchor="middle" fill="#000" font-size="10" font-weight="bold">Ground Screen</text>
  
  <!-- Foil plane at 45 degrees -->
  <line x1="290" y1="450" x2="450" y2="290" stroke="#00FF7F" stroke-width="4"/>
  <text x="360" y="360" text-anchor="middle" fill="#00AA55" font-size="12" font-weight="bold" 
        transform="rotate(-45 360 360)">Foil Plane</text>
  <text x="340" y="380" text-anchor="middle" fill="#00AA55" font-size="10" 
        transform="rotate(-45 340 380)">14 ft × 9 ft @ 45°</text>
  
  <!-- Visible image area -->
  <rect x="370" y="310" width="64" height="64" fill="rgba(0,191,255,0.3)" stroke="#00BFFF" stroke-width="2" stroke-dasharray="5,5"/>
  <text x="402" y="305" text-anchor="middle" fill="#0080C0" font-size="10" font-weight="bold">8 ft × 8 ft</text>
  <text x="402" y="295" text-anchor="middle" fill="#0080C0" font-size="10">Visible Image</text>
  
  <!-- Mask wall -->
  <rect x="500" y="360" width="20" height="90" fill="#333" stroke="#000" stroke-width="2"/>
  <text x="530" y="400" fill="#000" font-size="10" font-weight="bold">Mask Wall</text>
  <text x="530" y="415" fill="#000" font-size="9">2.25 ft high</text>
  
  <!-- Viewer area -->
  <rect x="580" y="450" width="120" height="20" fill="rgba(255,215,0,0.3)" stroke="#DAA520" stroke-width="2"/>
  <text x="640" y="445" text-anchor="middle" fill="#B8860B" font-size="10" font-weight="bold">Viewer Zone</text>
  <text x="640" y="430" text-anchor="middle" fill="#B8860B" font-size="9">8 ft standoff</text>
  
  <!-- Person silhouette at 5'6" -->
  <g transform="translate(620,450)">
    <!-- Head -->
    <circle cx="0" cy="-66" r="8" fill="#333"/>
    <!-- Body -->
    <rect x="-6" y="-58" width="12" height="30" fill="#333"/>
    <!-- Arms -->
    <rect x="-12" y="-50" width="6" height="20" fill="#333"/>
    <rect x="6" y="-50" width="6" height="20" fill="#333"/>
    <!-- Legs -->
    <rect x="-6" y="-28" width="5" height="28" fill="#333"/>
    <rect x="1" y="-28" width="5" height="28" fill="#333"/>
  </g>
  <text x="620" y="480" text-anchor="middle" fill="#333" font-size="9">5'6" eye height</text>
  
  <!-- Platform/build-up -->
  <rect x="580" y="450" width="120" height="24" fill="#D2B48C" stroke="#8B7355" stroke-width="1"/>
  <text x="640" y="495" text-anchor="middle" fill="#5D4E37" font-size="9">24" platform</text>
  
  <!-- Projection path lines -->
  <path d="M 240 430 L 350 440 L 380 340 L 620 385" stroke="red" stroke-width="2" fill="none" stroke-dasharray="3,3"/>
  <text x="420" y="385" fill="red" font-size="9">Projection Path</text>
  
  <!-- Viewer sightline -->
  <path d="M 620 384 L 390 340" stroke="blue" stroke-width="2" fill="none" stroke-dasharray="5,2"/>
  <text x="500" y="350" fill="blue" font-size="9">Viewer Sightline</text>
  
  <!-- Blackout zone indicator -->
  <rect x="250" y="250" width="400" height="200" fill="none" stroke="#8B0000" stroke-width="3" stroke-dasharray="10,5" opacity="0.7"/>
  <text x="450" y="240" text-anchor="middle" fill="#8B0000" font-size="11" font-weight="bold">Blackout Zone</text>
  
  <!-- Dimensions -->
  <g stroke="#666" stroke-width="1" fill="#666" font-size="8">
    <!-- 8 ft standoff -->
    <line x1="520" y1="500" x2="580" y2="500"/>
    <line x1="520" y1="495" x2="520" y2="505"/>
    <line x1="580" y1="495" x2="580" y2="505"/>
    <text x="550" y="515" text-anchor="middle">8 ft min</text>
    
    <!-- 6 ft projection depth -->
    <line x1="50" y1="520" x2="290" y2="520"/>
    <line x1="50" y1="515" x2="50" y2="525"/>
    <line x1="290" y1="515" x2="290" y2="525"/>
    <text x="170" y="535" text-anchor="middle">6 ft deep</text>
  </g>
  
  <!-- Title -->
  <text x="400" y="30" text-anchor="middle" font-size="18" font-weight="bold" fill="#333">Pepper's Ghost Installation - Cross Section</text>
  <text x="400" y="50" text-anchor="middle" font-size="12" fill="#666">Updated Scale: 14 ft × 9 ft Foil, 8 ft × 8 ft Image</text>
  
  <!-- Legend -->
  <g transform="translate(50,50)">
    <rect x="0" y="0" width="200" height="120" fill="white" stroke="#ccc" stroke-width="1"/>
    <text x="10" y="15" font-size="12" font-weight="bold" fill="#333">Components:</text>
    <line x1="10" y1="25" x2="30" y2="25" stroke="#00FF7F" stroke-width="3"/>
    <text x="35" y="29" font-size="10" fill="#333">Foil Plane (45°)</text>
    <rect x="10" y="35" width="20" height="10" fill="#333"/>
    <text x="35" y="44" font-size="10" fill="#333">Projection Bay</text>
    <rect x="10" y="50" width="20" height="5" fill="#4169E1"/>
    <text x="35" y="59" font-size="10" fill="#333">Ground Screen</text>
    <rect x="10" y="65" width="20" height="10" fill="#D2B48C"/>
    <text x="35" y="74" font-size="10" fill="#333">Platform (24")</text>
    <rect x="10" y="80" width="20" height="10" fill="rgba(0,191,255,0.3)" stroke="#00BFFF" stroke-dasharray="2,2"/>
    <text x="35" y="89" font-size="10" fill="#333">Visible Image Area</text>
    <line x1="10" y1="100" x2="30" y2="100" stroke="red" stroke-dasharray="3,3"/>
    <text x="35" y="104" font-size="10" fill="#333">Projection Path</text>
  </g>
</svg>